<?xml version="1.0" encoding="UTF-8" standalone="no"?>
<!DOCTYPE svg PUBLIC "-//W3C//DTD SVG 1.1//EN" "http://www.w3.org/Graphics/SVG/1.1/DTD/svg11.dtd">
<svg width="100%" height="100%" viewBox="0 0 1221 150" version="1.1" xmlns="http://www.w3.org/2000/svg" xmlns:xlink="http://www.w3.org/1999/xlink" xml:space="preserve" xmlns:serif="http://www.serif.com/" style="fill-rule:evenodd;clip-rule:evenodd;stroke-linejoin:round;stroke-miterlimit:2;">
    <g transform="matrix(1,0,0,1,-389.980065,-925.272151)">
        <g id="_-P_IMAGOTIPO" serif:id="@P_IMAGOTIPO" transform="matrix(2.490928,0,0,2.490928,-1017.651913,-1017.651913)">
            <g transform="matrix(0.469384,0,0,0.469384,50.415471,295.000495)">
                <g transform="matrix(1.048081,0,0,1.048081,1183.032112,296.866865)">
                    <path d="M366.025,822.857L346.914,822.857L306.171,771.099L306.171,822.857L283.344,822.857L283.344,729.958L302.455,729.958L343.198,781.716L343.198,729.958L366.025,729.958L366.025,822.857Z" style="fill:rgb(0,19,49);fill-rule:nonzero;"/>
                </g>
                <g transform="matrix(1.048081,0,0,1.048081,1183.032112,296.866865)">
                    <path d="M451.492,822.857L381.817,822.857L381.817,729.958L449.766,729.958L449.766,749.334L404.644,749.334L404.644,766.321L444.591,766.321L444.591,785.167L404.644,785.167L404.644,803.481L451.492,803.481L451.492,822.857Z" style="fill:rgb(0,19,49);fill-rule:nonzero;"/>
                </g>
                <g transform="matrix(1.048081,0,0,1.048081,1183.032112,296.866865)">
                    <path d="M498.339,792.599L479.361,822.857L452.819,822.857L485.201,775.744L454.279,729.958L480.556,729.958L499.268,758.226L517.583,729.958L542.4,729.958L512.009,774.815L544.523,822.857L517.981,822.857L498.339,792.599Z" style="fill:rgb(0,19,49);fill-rule:nonzero;"/>
                </g>
                <g transform="matrix(1.048081,0,0,1.048081,1183.032112,296.866865)">
                    <path d="M589.646,702.619L566.421,722.261L549.301,722.261L566.288,702.619L589.646,702.619ZM573.189,729.958L573.189,822.857L550.097,822.857L550.097,729.958L573.189,729.958Z" style="fill:rgb(0,19,49);fill-rule:nonzero;"/>
                </g>
                <g transform="matrix(1.048081,0,0,1.048081,1183.032112,296.866865)">
                    <path d="M628.398,797.907L612.074,797.907L612.074,822.857L588.982,822.857L588.982,729.958L628.398,729.958C636.272,729.958 643.129,731.352 648.968,734.139C654.808,736.926 659.32,740.885 662.505,746.016C665.69,751.148 667.283,757.209 667.283,764.198C667.283,770.922 665.734,776.806 662.638,781.849C659.541,786.892 655.206,790.785 649.632,793.528L668.875,822.857L644.191,822.857L627.867,797.907L628.398,797.907ZM626.938,778.664C632.512,778.664 636.737,777.381 639.612,774.815C642.488,772.249 643.925,768.71 643.925,764.198C643.925,759.509 642.488,755.904 639.612,753.382C636.737,750.86 632.512,749.6 626.938,749.6L612.074,749.6L612.074,778.664L626.938,778.664Z" style="fill:rgb(0,19,49);fill-rule:nonzero;"/>
                </g>
                <g transform="matrix(1.048081,0,0,1.048081,1183.032112,296.866865)">
                    <rect x="677.9" y="729.958" width="23.092" height="92.899" style="fill:rgb(0,19,49);fill-rule:nonzero;"/>
                </g>
                <g transform="matrix(1.048081,0,0,1.048081,1183.032112,296.866865)">
                    <path d="M756.333,824.582C743.504,824.582 733.506,820.866 726.34,813.435C719.173,806.003 715.59,795.43 715.59,781.716L715.59,729.958L738.682,729.958L738.682,780.787C738.682,788.838 740.208,794.722 743.261,798.438C746.313,802.154 750.759,804.012 756.598,804.012C762.438,804.012 766.862,802.154 769.87,798.438C772.878,794.722 774.382,788.838 774.382,780.787L774.382,729.958L797.209,729.958L797.209,781.716C797.209,795.43 793.625,806.003 786.459,813.435C779.292,820.866 769.25,824.582 756.333,824.582Z" style="fill:rgb(0,19,49);fill-rule:nonzero;"/>
                </g>
                <g transform="matrix(1.048081,0,0,1.048081,1183.032112,296.866865)">
                    <path d="M891.435,771.63L867.546,813.567L857.195,813.567L833.572,772.957L833.572,822.857L811.94,822.857L811.94,729.958L831.05,729.958L862.769,785.034L893.956,729.958L913.067,729.958L913.067,822.857L891.435,822.857L891.435,771.63Z" style="fill:rgb(0,19,49);fill-rule:nonzero;"/>
                </g>
            </g>
            <g transform="matrix(1,0,0,1,-1064.896627,-660)">
                <g transform="matrix(-0.967585,0,0,-1.451377,2044.15976,2589.444542)">
                    <path d="M345.355,771.298L345.355,791.968L262.674,750.628L304.014,750.628L345.355,771.298Z" style="fill:rgb(0,19,49);fill-rule:nonzero;"/>
                </g>
                <g transform="matrix(0.967585,0,0,1.451377,1375.84024,350.555458)">
                    <path d="M345.355,771.298L345.355,791.968L262.674,750.628L304.014,750.628L345.355,771.298Z" style="fill:rgb(0,19,49);fill-rule:nonzero;"/>
                </g>
                <g transform="matrix(1,0,0,1.027212,20,-122.994826)">
                    <rect x="1610" y="1560.53" width="20" height="19.47" style="fill:rgb(0,19,49);"/>
                </g>
            </g>
        </g>
    </g>
</svg>
